<svg width="280" height="280" viewBox="0 0 280 280" fill="none" xmlns="http://www.w3.org/2000/svg">
<rect opacity="0.5" width="280" height="280" rx="8" fill="#00FFF6"/>
<g clip-path="url(#clip0_12_44)">
<path d="M139 125C129 125 120.46 131.22 117 140C120.46 148.78 129 155 139 155C149.01 155 157.54 148.78 161 140C157.54 131.22 149.01 125 139 125ZM139 150C133.48 150 129 145.52 129 140C129 134.48 133.48 130 139 130C144.52 130 149 134.48 149 140C149 145.52 144.52 150 139 150ZM139 134C135.69 134 133 136.69 133 140C133 143.31 135.69 146 139 146C142.31 146 145 143.31 145 140C145 136.69 142.31 134 139 134Z" fill="white"/>
</g>
<defs>
<clipPath id="clip0_12_44">
<rect width="48" height="48" fill="white" transform="translate(115 116)"/>
</clipPath>
</defs>
</svg>
